# xmcd CD database file
#
# Track frame offsets:
#	150
#	17308
#	29150
#	45465
#	61869
#	75864
#	92077
#	107658
#	131990
#	149653
#	170797
#	189783
#	202453
#	215309
#	229317
#	247207
#
# Disc length: 3483 seconds
#
# Revision: 0
# Processed by: cddbd v1.5.2PL0 Copyright (c) Steve Scherf et al.
# Submitted via: CDex 1.51
#
DISCID=e80d9910
DTITLE=Django Reinhardt - The Best of the Radio Sessions (Expanded Edition) Disc2
DYEAR=2012
DGENRE=Jazz
TTITLE0=Artillerie Lourde
TTITLE1=St. James Infirmary
TTITLE2=C Jam Blues
TTITLE3=Honeysuckle Rose
TTITLE4=Rèverie
TTITLE5=Black Night
TTITLE6=Boogie-Woogie
TTITLE7=Dream Of You
TTITLE8=Manoir De Mes Rèves
TTITLE9=I Can't Give You Anithing But Love
TTITLE10=Air Mail Special
TTITLE11=The World is Waiting For The Sunrise (with Stèphane Grapelli)
TTITLE12=Vous, Oui Passez Sans Me Voir (with Stèphane Grapelli)
TTITLE13=Hallelujah! (with Stèphane Grapelli)
TTITLE14=I'll Never Be The Same (with Stèphane Grapelli)
TTITLE15=Clopin-Clopant (with Stèphane Grapelli)
EXTD=YEAR: 2012
EXTT0=
EXTT1=
EXTT2=
EXTT3=
EXTT4=
EXTT5=
EXTT6=
EXTT7=
EXTT8=
EXTT9=
EXTT10=
EXTT11=
EXTT12=
EXTT13=
EXTT14=
EXTT15=
PLAYORDER=
